<?xml version="1.0" encoding="UTF-8"?>
<svg id="Layer_5" data-name="Layer 5" xmlns="http://www.w3.org/2000/svg" viewBox="0 0 200 200">
  <defs>
    <style>
      .cls-1 {
        fill: #eedf71;
      }

      .cls-2 {
        fill: #fff;
      }

      .cls-3 {
        fill: #2f93af;
      }

      .cls-4 {
        fill: #2f71af;
      }

      .cls-5 {
        fill: #1c9baf;
      }

      .cls-6 {
        fill: #452a9e;
      }

      .cls-7 {
        fill: #2aafab;
      }

      .cls-8 {
        fill: #2f64af;
      }

      .cls-9 {
        fill: #2f42af;
      }

      .cls-10 {
        fill: none;
        stroke: #fff;
        stroke-linecap: round;
        stroke-linejoin: round;
        stroke-width: 5px;
      }
    </style>
  </defs>
  <g>
    <path class="cls-8" d="M28.61,89.35c.07-.12,.14-.26,.23-.38,2.37-3.49,16.82-6.3,37.21-7.64,10.16-.66,21.83-.95,34.2-.78,12.36,.17,23.98,.78,34.12,1.73,20.2,1.89,34.5,5.05,36.97,8.57,.02,.07,.06,.13,.1,.18,2.12,3.9,3.95,7.99,5.45,12.31,.79,2.28,1.45,4.55,2.04,6.84-1.43-4.1-15.89-7.83-37.09-10.19-12.14-1.34-26.48-2.22-41.85-2.43-15.38-.21-29.73,.27-41.89,1.28-21.16,1.73-35.67,5.05-37.36,9.09,1.84-6.48,4.49-12.72,7.85-18.56Z"/>
    <path class="cls-3" d="M178.94,110.17v.02c.02,.05,.04,.1,.04,.16,1.82,7.19,2.63,14.44,2.48,21.58-.04-4.54-15.61-8.73-38.97-11.27-12.43-1.35-27.08-2.24-42.77-2.45-15.7-.23-30.36,.26-42.84,1.27-23.28,1.86-38.93,5.61-39.25,10.11,.06-7.28,1.1-14.46,3.04-21.37,.01-.08,.04-.17,.06-.25l.02-.05c1.68-4.04,16.2-7.36,37.36-9.09,12.16-1.01,26.5-1.49,41.89-1.28,15.37,.21,29.71,1.09,41.85,2.43,21.21,2.36,35.66,6.09,37.09,10.19Z"/>
    <path class="cls-5" d="M142.49,120.65c23.37,2.54,38.94,6.72,38.97,11.27,0,.04-.01,.08,0,.1-.16,7.32-1.31,14.53-3.37,21.42,.05-.17,.09-.34,.11-.51,.05-4.29-14.56-8.24-36.63-10.67-12.18-1.34-26.64-2.24-42.16-2.46-15.52-.2-29.99,.28-42.21,1.28-22.11,1.83-36.84,5.38-36.91,9.66,0,.13,.04,.27,.06,.4-1.87-7.11-2.77-14.29-2.73-21.36,0-.04,0-.1,0-.14,0-.02,0-.04,0-.06,.32-4.5,15.97-8.25,39.25-10.11,12.48-1.01,27.14-1.51,42.84-1.27,15.69,.22,30.34,1.1,42.77,2.45Z"/>
    <path class="cls-4" d="M158.62,73.52c4.91,5.12,9.21,10.9,12.73,17.32-2.47-3.53-16.77-6.69-36.97-8.57-10.15-.95-21.76-1.55-34.12-1.73-12.38-.17-24.04,.12-34.2,.78-20.39,1.35-34.84,4.15-37.21,7.64,3.6-6.19,8.02-11.91,13.17-17,.15-.17,.33-.32,.5-.48,3.53-2.89,15.4-5.16,31.47-6.23,7.97-.55,16.95-.78,26.47-.66,9.51,.14,18.49,.63,26.43,1.37,16.19,1.55,28.1,4.19,31.4,7.2,.06,.06,.11,.1,.17,.15,.06,.07,.13,.15,.18,.2Z"/>
    <path class="cls-7" d="M141.57,142.26c22.07,2.44,36.68,6.38,36.63,10.67-.01,.18-.05,.34-.11,.51,0,.06-.02,.1-.03,.14-2.36,6.3-36.85,10.86-78.99,10.28-41.99-.59-76.21-6.06-78.63-12.39-.04-.12-.06-.23-.1-.35-.02-.12-.05-.27-.06-.4,.07-4.28,14.8-7.83,36.91-9.66,12.22-1,26.7-1.48,42.21-1.28,15.52,.22,29.98,1.11,42.16,2.46Z"/>
    <path class="cls-9" d="M158.27,73.17c-3.3-3.01-15.2-5.65-31.4-7.2-7.94-.74-16.93-1.24-26.43-1.37-9.52-.12-18.5,.11-26.47,.66-16.06,1.08-27.93,3.34-31.47,6.23,4.86-4.72,10.35-8.89,16.41-12.33,.33-.19,.67-.38,1.01-.56h.03c5.3-2.43,21.49-4.01,40.61-3.75,19.5,.26,35.91,2.36,40.8,5.01,.1,.06,.21,.12,.33,.19,6.03,3.62,11.62,8.02,16.57,13.13Z"/>
    <path class="cls-6" d="M141.36,59.85c-4.89-2.64-21.29-4.75-40.8-5.01-19.12-.26-35.31,1.32-40.61,3.74,3.98-2.21,8.2-4.11,12.63-5.66,23.76-8.28,48.71-4.96,68.77,6.93Z"/>
  </g>
  <path class="cls-10" d="M82.24,111.55c3.05,6.25,9.13,6.22,13.55-.29,4.83,7.5,11.71,6.49,14.5-1.12"/>
  <path class="cls-7" d="M70.19,62.14l-29.41,19.24c-1.75,1.15-4.1,.05-4.35-2.03l-3.76-31.28c-.25-2.09,1.79-3.71,3.77-2.99l33.17,12.04c2.19,.79,2.53,3.75,.58,5.02Z"/>
  <path class="cls-7" d="M129.77,63.04l29.79,18.66c1.78,1.11,4.1-.03,4.31-2.11l3.14-31.35c.21-2.1-1.86-3.68-3.83-2.92l-32.93,12.69c-2.17,.84-2.46,3.8-.48,5.03Z"/>
  <path class="cls-1" d="M198.15,88.59c-8.16,2.81-10.01,5.15-12.4,15.68-2.1-10.6-3.88-12.99-11.97-16.02,8.16-2.81,10.01-5.15,12.4-15.68,2.1,10.6,3.88,12.99,11.97,16.02Z"/>
  <path class="cls-1" d="M26.86,99.35c-8.16,2.81-10.01,5.15-12.4,15.68-2.1-10.6-3.88-12.99-11.97-16.02,8.16-2.81,10.01-5.15,12.4-15.68,2.1,10.6,3.88,12.99,11.97,16.02Z"/>
  <ellipse class="cls-2" cx="122.82" cy="99.78" rx="9.63" ry="9.01" transform="translate(-25.99 45.96) rotate(-19.21)"/>
  <ellipse class="cls-2" cx="69.89" cy="99.86" rx="9.63" ry="9.01" transform="translate(-10.35 8.1) rotate(-6.18)"/>
</svg>
